<svg width="32" height="32" viewBox="0 0 32 32" fill="none" xmlns="http://www.w3.org/2000/svg">
<g id="solar:bill-bold">
<path id="Vector" fill-rule="evenodd" clip-rule="evenodd" d="M2.66675 1.66663C2.40153 1.66663 2.14718 1.77198 1.95964 1.95952C1.7721 2.14706 1.66675 2.40141 1.66675 2.66663C1.66675 2.93184 1.7721 3.1862 1.95964 3.37373C2.14718 3.56127 2.40153 3.66663 2.66675 3.66663H5.33341V16.3693C5.33341 18.156 5.33342 19.0493 5.69075 19.8373C6.04808 20.6253 6.72008 21.2133 8.06541 22.3906L10.7321 24.724C13.2427 26.92 14.4974 28.0173 16.0001 28.0173C17.5027 28.0173 18.7587 26.92 21.2681 24.724L23.9347 22.3906C25.2787 21.2133 25.9521 20.6253 26.3081 19.8373C26.6667 19.0506 26.6667 18.1573 26.6667 16.3706V3.66663H29.3334C29.5986 3.66663 29.853 3.56127 30.0405 3.37373C30.2281 3.1862 30.3334 2.93184 30.3334 2.66663C30.3334 2.40141 30.2281 2.14706 30.0405 1.95952C29.853 1.77198 29.5986 1.66663 29.3334 1.66663H2.66675ZM11.3334 16.3333C11.0682 16.3333 10.8138 16.4387 10.6263 16.6262C10.4388 16.8137 10.3334 17.0681 10.3334 17.3333C10.3334 17.5985 10.4388 17.8529 10.6263 18.0404C10.8138 18.2279 11.0682 18.3333 11.3334 18.3333H20.6667C20.932 18.3333 21.1863 18.2279 21.3739 18.0404C21.5614 17.8529 21.6667 17.5985 21.6667 17.3333C21.6667 17.0681 21.5614 16.8137 21.3739 16.6262C21.1863 16.4387 20.932 16.3333 20.6667 16.3333H11.3334ZM10.3334 10.6666C10.3334 10.4014 10.4388 10.1471 10.6263 9.95952C10.8138 9.77198 11.0682 9.66663 11.3334 9.66663H20.6667C20.932 9.66663 21.1863 9.77198 21.3739 9.95952C21.5614 10.1471 21.6667 10.4014 21.6667 10.6666C21.6667 10.9318 21.5614 11.1862 21.3739 11.3737C21.1863 11.5613 20.932 11.6666 20.6667 11.6666H11.3334C11.0682 11.6666 10.8138 11.5613 10.6263 11.3737C10.4388 11.1862 10.3334 10.9318 10.3334 10.6666Z" fill="#2270F9"/>
</g>
</svg>
