<svg width="32" height="32" viewBox="0 0 32 32" fill="none" xmlns="http://www.w3.org/2000/svg">
<g id="mdi:paper-edit">
<path id="Vector" d="M28 13.3333V12L20 4H6.66667C5.18667 4 4 5.18667 4 6.66667V25.3333C4 26.0406 4.28095 26.7189 4.78105 27.219C5.28115 27.719 5.95942 28 6.66667 28H14.6667V25.5067L25.8533 14.32C26.44 13.7333 27.1867 13.4133 28 13.3333ZM18.6667 6L26 13.3333H18.6667V6ZM30.4667 18.92L29.16 20.2267L26.44 17.5067L27.7467 16.2C28 15.9333 28.44 15.9333 28.7067 16.2L30.4667 17.96C30.7333 18.2267 30.7333 18.6667 30.4667 18.92ZM25.5067 18.44L28.2267 21.16L20.0533 29.3333H17.3333V26.6133L25.5067 18.44Z" fill="#2270F9"/>
</g>
</svg>
