<svg width="32" height="32" viewBox="0 0 32 32" fill="none" xmlns="http://www.w3.org/2000/svg">
<g id="mingcute:paper-fill" clip-path="url(#clip0_14845_33954)">
<g id="Group">
<g id="Vector" filter="url(#filter0_i_14845_33954)">
<path d="M21.6842 4C22.6508 3.99995 23.5809 4.36925 24.2841 5.03236C24.9874 5.69546 25.4107 6.60224 25.4674 7.56716L25.4737 7.78947V20.4211H26.4211C27.2383 20.4211 27.9116 21.0425 27.9924 21.8383L28 22V24.2105C28.0001 25.1771 27.6307 26.1072 26.9676 26.8104C26.3045 27.5137 25.3978 27.937 24.4328 27.9937L24.2105 28H11.5789C10.6124 28.0001 9.6823 27.6307 8.97904 26.9676C8.27578 26.3045 7.8525 25.3978 7.79579 24.4328L7.78947 24.2105V11.5789H5.57895C5.18805 11.5791 4.81099 11.4343 4.52072 11.1725C4.23045 10.9107 4.04761 10.5505 4.00758 10.1617L4 10V7.78947C3.99995 6.82289 4.36925 5.89282 5.03236 5.18957C5.69546 4.48631 6.60224 4.06302 7.56716 4.00632L7.78947 4H21.6842ZM25.4737 22.9474H14.1053V24.2105C14.1053 24.6526 14.0295 25.0783 13.8905 25.4737H24.2105C24.5455 25.4737 24.8668 25.3406 25.1037 25.1037C25.3406 24.8668 25.4737 24.5455 25.4737 24.2105V22.9474ZM16.6316 15.3684H14.1053C13.7833 15.3688 13.4736 15.4921 13.2395 15.7131C13.0054 15.9341 12.8645 16.2362 12.8457 16.5576C12.8268 16.879 12.9314 17.1954 13.138 17.4423C13.3447 17.6892 13.6378 17.8479 13.9575 17.8859L14.1053 17.8947H16.6316C16.9535 17.8944 17.2632 17.7711 17.4973 17.5501C17.7314 17.3291 17.8723 17.027 17.8912 16.7056C17.91 16.3842 17.8055 16.0677 17.5988 15.8208C17.3922 15.574 17.0991 15.4153 16.7794 15.3773L16.6316 15.3684ZM19.1579 10.3158H14.1053C13.7703 10.3158 13.449 10.4489 13.2121 10.6858C12.9752 10.9226 12.8421 11.2439 12.8421 11.5789C12.8421 11.914 12.9752 12.2352 13.2121 12.4721C13.449 12.709 13.7703 12.8421 14.1053 12.8421H19.1579C19.4929 12.8421 19.8142 12.709 20.0511 12.4721C20.288 12.2352 20.4211 11.914 20.4211 11.5789C20.4211 11.2439 20.288 10.9226 20.0511 10.6858C19.8142 10.4489 19.4929 10.3158 19.1579 10.3158ZM7.78947 6.52632C7.45446 6.52632 7.13317 6.6594 6.89629 6.89629C6.6594 7.13317 6.52632 7.45446 6.52632 7.78947V9.05263H7.78947V6.52632Z" fill="#2270F9"/>
</g>
</g>
</g>
<defs>
<filter id="filter0_i_14845_33954" x="4" y="4" width="24" height="24" filterUnits="userSpaceOnUse" color-interpolation-filters="sRGB">
<feFlood flood-opacity="0" result="BackgroundImageFix"/>
<feBlend mode="normal" in="SourceGraphic" in2="BackgroundImageFix" result="shape"/>
<feColorMatrix in="SourceAlpha" type="matrix" values="0 0 0 0 0 0 0 0 0 0 0 0 0 0 0 0 0 0 127 0" result="hardAlpha"/>
<feOffset/>
<feGaussianBlur stdDeviation="1.5"/>
<feComposite in2="hardAlpha" operator="arithmetic" k2="-1" k3="1"/>
<feColorMatrix type="matrix" values="0 0 0 0 0 0 0 0 0 0 0 0 0 0 0 0 0 0 0.35 0"/>
<feBlend mode="normal" in2="shape" result="effect1_innerShadow_14845_33954"/>
</filter>
<clipPath id="clip0_14845_33954">
<rect width="32" height="32" fill="white"/>
</clipPath>
</defs>
</svg>
